<?xml version="1.0" standalone="no"?><!DOCTYPE svg PUBLIC "-//W3C//DTD SVG 1.1//EN" "http://www.w3.org/Graphics/SVG/1.1/DTD/svg11.dtd"><svg t="1537214074899" class="icon" style="" viewBox="0 0 1024 1024" version="1.1" xmlns="http://www.w3.org/2000/svg" p-id="1914" xmlns:xlink="http://www.w3.org/1999/xlink" width="200" height="200"><defs><style type="text/css"></style></defs><path d="M792.643734 534.346201c-49.275437 33.212034-108.236012 52.510642-171.680825 52.510642-63.260529 0-122.026582-19.165514-171.117736-52.131836-132.970991 65.031701-224.821103 203.249661-224.821102 363.233584 0 169.280016 793.075521 166.940636 793.07552 0-0.061428-160.362729-92.100942-298.770092-225.455857-363.61239zM354.39129 270.938121C354.39129 121.330399 473.699686 0 620.962909 0s266.571619 121.263852 266.571618 270.938121c0 149.607722-119.308396 270.810146-266.571618 270.810145S354.39129 420.545843 354.39129 270.938121zM178.026586 911.999992c0 6.199102 0.947014 12.085945 2.779614 17.906241-100.137763-16.257925-174.91091-48.328423-174.91091-96.661965 0-138.47391 79.451908-258.099683 194.583204-314.398381a265.010325 265.010325 0 0 0 139.548899 45.042029c-98.934799 82.681993-162.000807 207.928422-162.000807 348.112076z m132.018858-641.061871c0-68.763448 21.632869-132.397664 58.387247-184.273551a218.990568 218.990568 0 0 0-19.293489-0.824158c-121.202424 0-219.446159 99.820385-219.446159 222.988503s98.177188 222.988503 219.379612 222.988503c27.263763 0 53.391109-5.057566 77.429905-14.358779-70.974853-57.885585-116.457116-146.761561-116.457116-246.520518z" fill="#e6e6e6" p-id="1915"></path></svg>